<svg xmlns="http://www.w3.org/2000/svg" viewBox="0 0 256 256" width="256" height="256">
  <defs>
    <radialGradient id="g" cx="40%" cy="30%" r="80%">
      <stop offset="0%" stop-color="#ffffff" stop-opacity="0.22"/>
      <stop offset="45%" stop-color="#2f7a52" stop-opacity="0.85"/>
      <stop offset="100%" stop-color="#0e1112" stop-opacity="1"/>
    </radialGradient>
    <linearGradient id="s" x1="0" y1="0" x2="1" y2="1">
      <stop offset="0%" stop-color="#2f7a52" stop-opacity="1"/>
      <stop offset="60%" stop-color="#00bcd4" stop-opacity="0.85"/>
      <stop offset="100%" stop-color="#5227ff" stop-opacity="0.65"/>
    </linearGradient>
  </defs>

  <rect x="16" y="16" width="224" height="224" rx="56" fill="url(#g)"/>
  <rect x="16" y="16" width="224" height="224" rx="56" fill="none" stroke="rgba(255,255,255,0.20)" stroke-width="2"/>

  <path d="M64 86c12-10 28-15 46-15 28 0 45 12 55 30 9-18 26-30 53-30 8 0 16 1 24 3v22c-9-3-18-4-27-4-23 0-36 10-44 28l-8 18-8-18c-8-18-21-28-45-28-14 0-26 4-35 11-12 10-18 24-18 42 0 34 26 60 64 64v22c-52-4-92-44-92-96 0-26 10-48 29-64z" fill="rgba(255,255,255,0.92)"/>

  <path d="M62 188h132" stroke="url(#s)" stroke-width="10" stroke-linecap="round" opacity="0.9"/>
</svg>
